<svg width="156" height="156" viewBox="0 0 156 156" fill="none" xmlns="http://www.w3.org/2000/svg">
<circle cx="78" cy="78" r="77.5" fill="white" stroke="#DEDBDC"/>
<path d="M91.5 64.5H64.5C63 64.5 61.5 66 61.5 67.5V88.5C61.5 90.15 62.85 91.5 64.5 91.5H91.5C93 91.5 94.5 90 94.5 88.5V67.5C94.5 66 93 64.5 91.5 64.5ZM91.5 88.38C91.47 88.425 91.41 88.47 91.38 88.5H64.5V67.62L64.62 67.5H91.365C91.41 67.53 91.455 67.59 91.485 67.62V88.38H91.5ZM76.5 83.265L72.75 78.75L67.5 85.5H88.5L81.75 76.5L76.5 83.265Z" fill="#ADABAC"/>
</svg>